<?xml version="1.0" encoding="UTF-8"?>
<!-- Created with Inkscape (http://www.inkscape.org/) -->
<svg width="111.37mm" height="16.894mm" version="1.1" viewBox="0 0 111.37 16.894" xmlns="http://www.w3.org/2000/svg">
 <g transform="translate(-24.178 -20)">
  <g transform="matrix(.52984 0 0 .52984 -45.519 -75.194)">
   <g transform="translate(1.3458 34.511)">
    <g>
     <path d="m150.8 145.15a1.5228 1.5228 0 0 0-1.5254 1.5215 1.5228 1.5228 0 0 0 1.5195 1.5254l5.8418 8e-3a1.5228 1.5228 0 0 0 1.5254-1.5195 1.5228 1.5228 0 0 0-1.5215-1.5254zm-3e-3 1.5235 5.8405 9e-3m-4.3827-0.56765-0.125 3.2266 3.2988 0.12696 0.12305-3.2266zm1.5245 3.2899 0.1241-3.2267m0.13368 7.1705zm5.6103 2.612a1.5494 1.5494 0 0 0-1.0527 0.54883l-6.3496 7.584-2.4043-3.125a1.5494 1.5494 0 0 0-2.1738-0.28321 1.5494 1.5494 0 0 0-0.2832 2.1738l4.7617 6.1836 8.8262-10.545a1.5494 1.5494 0 0 0-0.19336-2.1816 1.5494 1.5494 0 0 0-1.1309-0.35547zm-5.8223-7.5137c-8.1342 0-14.836 6.357-14.836 14.248s6.7017 14.248 14.836 14.248c8.1342 0 14.836-6.357 14.836-14.248s-6.7017-14.248-14.836-14.248zm0 3.3008c6.4302 0 11.535 4.9229 11.535 10.947s-5.1049 10.949-11.535 10.949c-6.4302 0-11.537-4.9248-11.537-10.949s5.1069-10.947 11.537-10.947zm-6.7695-4.1719a1.4498 1.4498 0 0 0-1.0938 0.18554 1.4498 1.4498 0 0 0-0.45703 1.998l1.1191 1.7852a1.4498 1.4498 0 0 0 2 0.45703 1.4498 1.4498 0 0 0 0.45703-1.998l-1.1211-1.7852a1.4498 1.4498 0 0 0-0.9043-0.64258zm-5.4981 19.62-10.016 0.24023a1.3812 1.3812 0 0 0-1.3476 1.4141 1.3812 1.3812 0 0 0 1.4141 1.3477l10.016-0.24023a1.3812 1.3812 0 0 0 1.3476-1.4141 1.3812 1.3812 0 0 0-1.4141-1.3476zm-1.5332-5.0547-5.1738 0.24219a1.3812 1.3812 0 0 0-1.3164 1.4434 1.3812 1.3812 0 0 0 1.4434 1.3164l5.1758-0.24218a1.3812 1.3812 0 0 0 1.3145-1.4434 1.3812 1.3812 0 0 0-1.4434-1.3164zm-7.4473-5.0566a1.3812 1.3812 0 0 0-1.3809 1.3828 1.3812 1.3812 0 0 0 1.3809 1.3809h8.0117a1.3812 1.3812 0 0 0 1.3809-1.3809 1.3812 1.3812 0 0 0-1.3809-1.3828z" color="#000000" stroke-linecap="round" style="-inkscape-stroke:none"/>
    </g>
   </g>
  </g>
  <g stroke-width=".139" aria-label="ChoreNow">
   <g>
    <path d="m48.856 30.129q0 3.1858 1.5426 4.9407 1.5538 1.755 4.3594 1.755 1.3749 0 2.4592-0.41359 1.0843-0.42477 1.8667-1.2184 0.5589-0.58126 0.89425-1.2519 0.34652-0.68186 0.34652-1.1737 0-0.36888-0.21238-0.58126-0.2012-0.22356-0.59244-0.22356-0.30181 0-0.50301 0.16767-0.19003 0.16767-0.40241 0.59244-0.42477 0.84953-0.99485 1.3973-0.5589 0.54772-1.2631 0.816-0.69304 0.26827-1.5426 0.26827-2.0121 0-3.0963-1.3078-1.0843-1.319-1.0843-3.767v-2.5039q0-2.4368 1.0843-3.7558 1.0843-1.3302 3.0963-1.3302 0.83836 0 1.509 0.27945 0.68186 0.26827 1.2408 0.82718t1.006 1.4308q0.22356 0.44712 0.43594 0.61479 0.22356 0.15649 0.53655 0.15649 0.3577 0 0.57008-0.21238 0.21238-0.22356 0.21238-0.60362 0-0.48066-0.33534-1.1625-0.33534-0.68186-0.90542-1.2631-0.79364-0.82718-1.8779-1.2519-1.0731-0.43594-2.448-0.43594-2.8057 0-4.3594 1.7661-1.5426 1.7661-1.5426 4.9407z" color="#000000" style="-inkscape-stroke:none"/>
    <path d="m54.758 20.85c-1.885 0-3.3626 0.59606-4.4121 1.7891-1.042 1.193-1.5586 2.8587-1.5586 4.9863v2.5039c0 2.135 0.51644 3.8007 1.5586 4.9863h2e-3c1.0496 1.1855 2.5252 1.7793 4.4102 1.7793 0.92357 0 1.7524-0.13876 2.4844-0.41797 0.73125-0.28647 1.3621-0.69826 1.8906-1.2344h2e-3v-2e-3c0.37704-0.39213 0.67937-0.81382 0.90625-1.2676 0.23407-0.46059 0.35352-0.86087 0.35352-1.2051 0-0.25829-0.07582-0.47323-0.23047-0.62891-0.14912-0.16569-0.37047-0.24609-0.64453-0.24609-0.21408 0-0.39961 0.06087-0.54688 0.18359v2e-3h-2e-3c-0.13888 0.12255-0.27431 0.32596-0.41797 0.61328-0.28029 0.56058-0.60714 1.0202-0.98047 1.3789h-2e-3c-0.36623 0.35891-0.77779 0.62536-1.2383 0.80078-0.45311 0.1754-0.95854 0.26367-1.5176 0.26367-1.3263 0-2.3336-0.42758-3.043-1.2832-0.70945-0.86305-1.0684-2.1009-1.0684-3.7227v-2.5039c0-1.6142 0.35884-2.8478 1.0684-3.7109 0.70955-0.87047 1.7169-1.3047 3.043-1.3047 0.55118 0 1.0448 0.09109 1.4824 0.27344 0.44529 0.1752 0.85221 0.44596 1.2188 0.8125 0.36638 0.36638 0.69672 0.83595 0.99219 1.4121 0.15142 0.30285 0.29922 0.51562 0.45508 0.63867l2e-3 2e-3h2e-3c0.16152 0.11307 0.35593 0.16992 0.57617 0.16992 0.25222 0 0.46376-0.07704 0.61914-0.23242v-2e-3c0.15513-0.1633 0.23242-0.38603 0.23242-0.65234 0-0.3366-0.11538-0.73298-0.3418-1.1934-0.22676-0.46109-0.53372-0.88728-0.91797-1.2793-0.53593-0.55857-1.1706-0.98287-1.9023-1.2695-0.72499-0.29452-1.5507-0.43945-2.4746-0.43945zm0 0.13867c0.90926 0 1.7161 0.14295 2.4219 0.42969l2e-3 2e-3c0.71394 0.27969 1.3293 0.69004 1.8516 1.2344h2e-3c0.37531 0.38267 0.67245 0.7985 0.89258 1.2461 0.22071 0.44877 0.32812 0.82658 0.32812 1.1309 0 0.23967-0.06611 0.42004-0.19336 0.55469-0.12779 0.12779-0.29482 0.19336-0.51953 0.19336-0.19544 0-0.35828-0.04856-0.49414-0.14258-2.81e-4 -2.22e-4 2.81e-4 -0.0017 0-2e-3 -0.1271-0.10072-0.26968-0.29718-0.41602-0.58984h-2e-3c-0.30074-0.58636-0.6388-1.0704-1.0176-1.4492-0.37866-0.37866-0.79982-0.6593-1.2637-0.8418-0.45661-0.19025-0.96853-0.28516-1.5352-0.28516-1.3567 0-2.4142 0.45431-3.1504 1.3574-0.73618 0.89556-1.0996 2.164-1.0996 3.7988v2.5039c0 1.6423 0.36337 2.9149 1.0996 3.8105v2e-3c0.73633 0.88815 1.794 1.332 3.1504 1.332 0.57367 0 1.0955-0.09114 1.5664-0.27344 0.47847-0.18227 0.90814-0.45868 1.2871-0.83008 0.38678-0.37161 0.7237-0.84388 1.0098-1.416 0.13919-0.27838 0.27047-0.46911 0.38477-0.57031 0.12101-0.10084 0.2687-0.15234 0.45703-0.15234 0.24758 0 0.42186 0.06878 0.54102 0.20117l2e-3 2e-3c0.12736 0.12736 0.19336 0.30062 0.19336 0.5332 0 0.31157-0.11189 0.69402-0.33984 1.1426-0.22025 0.44049-0.51465 0.85149-0.88281 1.2344-0.51449 0.52151-1.1279 0.92149-1.8418 1.2012-0.7133 0.27182-1.5247 0.41016-2.4336 0.41016-1.856 0-3.2846-0.578-4.3066-1.7324-1.0146-1.1543-1.5254-2.7819-1.5254-4.8945v-2.504c0-2.1051 0.51058-3.7326 1.5254-4.8945 1.0221-1.1618 2.4508-1.7422 4.3066-1.7422z" color="#000000" style="-inkscape-stroke:none"/>
    <path d="m70.709 35.629v-7.154q0-1.8108-1.0619-2.8504-1.0507-1.0396-2.8951-1.0396-1.319 0-2.3474 0.65951-1.0172 0.64833-1.319 1.6767h-0.08942v-5.5667q0-0.98367-0.88307-0.98367-0.41359 0-0.64833 0.26827-0.22356 0.2571-0.22356 0.7154v14.274q0 0.98367 0.87189 0.98367 0.41359 0 0.64833-0.2571 0.23474-0.26827 0.23474-0.72658v-5.7008q0-1.1737 0.39123-2.0121 0.40241-0.84953 1.129-1.3078t1.7102-0.4583q1.2967 0 2.0009 0.74893 0.7154 0.73775 0.7154 2.1238v6.6062q0 0.4583 0.22356 0.72658 0.23474 0.2571 0.64833 0.2571t0.64833-0.26827q0.24592-0.26827 0.24592-0.7154z" color="#000000" style="-inkscape-stroke:none"/>
    <path d="m62.113 20.301c-0.29075 0-0.53136 0.0989-0.70117 0.29297-0.16246 0.18683-0.24023 0.44293-0.24023 0.75977v14.275c0 0.33816 0.07576 0.60205 0.23633 0.7832 0.16057 0.18116 0.40138 0.26953 0.70508 0.26953 0.29013 0 0.52902-0.09289 0.69922-0.2793h2e-3v-2e-3c0.16941-0.19361 0.25195-0.45408 0.25195-0.77148v-5.7012c0-0.77474 0.1292-1.4348 0.38477-1.9824 0.26342-0.5561 0.63062-0.98101 1.1035-1.2793 0.47241-0.29798 1.0269-0.44727 1.6719-0.44727 0.85106 0 1.4963 0.24278 1.9512 0.72656v2e-3c0.46179 0.47622 0.69531 1.1621 0.69531 2.0742v6.6074c0 0.31684 0.07873 0.57768 0.24023 0.77148h2e-3v2e-3c0.1702 0.18641 0.40909 0.2793 0.69922 0.2793 0.29075 0 0.53136-0.09694 0.70117-0.29102 0.17694-0.19303 0.26367-0.4509 0.26367-0.76172v-7.1543c0-1.2208-0.36162-2.1932-1.084-2.9004-0.71485-0.70656-1.7014-1.0586-2.9434-1.0586-0.89092 0-1.6878 0.22296-2.3848 0.66992-0.66536 0.42408-1.0853 0.9875-1.3008 1.6562v-5.4883c0-0.33829-0.07572-0.60212-0.23828-0.7832-0.16256-0.18108-0.40758-0.26953-0.71484-0.26953zm0 0.13867c0.28145 0 0.47954 0.07585 0.61133 0.22266 0.13179 0.14681 0.20312 0.37392 0.20312 0.69141v5.6367h0.21094l0.01367-0.04883c0.19638-0.66913 0.62234-1.2137 1.2891-1.6387h2e-3c0.67422-0.43238 1.4408-0.64844 2.3086-0.64844 1.2165 0 2.1597 0.34079 2.8457 1.0195h2e-3c0.69353 0.67893 1.041 1.6071 1.041 2.8008v7.1543c0 0.28534-0.07757 0.5033-0.22852 0.66797v2e-3c-0.14317 0.16363-0.33696 0.24414-0.59766 0.24414-0.26029 0-0.45113-0.07727-0.59375-0.23242v-2e-3c-0.13588-0.16378-0.20703-0.38623-0.20703-0.67969v-6.6074c0-0.935-0.24337-1.6625-0.73438-2.1699-0.48406-0.5148-1.1749-0.77148-2.0527-0.77148-0.66657 0-1.2497 0.15567-1.7461 0.46875-0.49588 0.31278-0.88312 0.76128-1.1562 1.3379-0.26608 0.57017-0.39648 1.2508-0.39648 2.041v5.7012c0 0.29367-0.07517 0.5156-0.21875 0.67969-0.14267 0.1555-0.33512 0.23438-0.5957 0.23438-0.27756 0-0.4715-0.07592-0.60156-0.22266-0.13006-0.14673-0.20117-0.37378-0.20117-0.69141v-14.275c0-0.29345 0.07211-0.51208 0.20703-0.66797 0.14317-0.16363 0.335-0.24609 0.5957-0.24609z" color="#000000" style="-inkscape-stroke:none"/>
    <path d="m76.5 24.585q-1.4196 0-2.5486 0.60362-1.129 0.59244-1.7885 1.7438-0.64833 1.1402-0.64833 2.7722v1.8556q0 1.632 0.64833 2.7833 0.65951 1.1402 1.7885 1.7438t2.5486 0.60362q1.4196 0 2.5374-0.60362 1.129-0.60362 1.7773-1.7438 0.65951-1.1513 0.65951-2.7833v-1.8556q0-1.632-0.65951-2.7722-0.64833-1.1513-1.7773-1.7438-1.1178-0.60362-2.5374-0.60362zm0 1.5649q0.98367 0 1.6991 0.46948 0.7154 0.46948 1.1066 1.3078 0.39123 0.83836 0.39123 1.9673v1.4755q0 1.1513-0.39123 2.0009-0.39123 0.83836-1.1066 1.2967t-1.6991 0.4583q-1.4643 0-2.3362-1.0172-0.87189-1.0172-0.87189-2.7386v-1.4755q0-1.129 0.39123-1.9673 0.40241-0.83836 1.1178-1.3078 0.72658-0.46948 1.6991-0.46948z" color="#000000" style="-inkscape-stroke:none"/>
    <path d="m76.5 24.516c-0.95626 0-1.8187 0.20321-2.582 0.61133-0.76413 0.40098-1.3708 0.99354-1.8164 1.7715-0.43926 0.7725-0.65625 1.7094-0.65625 2.8066v1.8555c0 1.0972 0.21714 2.0366 0.65625 2.8164v2e-3c0.44562 0.77039 1.0527 1.3612 1.8164 1.7695 0.76334 0.40812 1.6258 0.61133 2.582 0.61133 0.95626 0 1.8143-0.20307 2.5703-0.61133 0.76382-0.40838 1.3665-1.0009 1.8047-1.7715 0.44671-0.77985 0.66797-1.719 0.66797-2.8164v-1.8555c0-1.0966-0.22169-2.0344-0.66797-2.8066-0.43818-0.7782-1.0405-1.3705-1.8047-1.7715-0.75603-0.40826-1.6141-0.61133-2.5703-0.61133zm0 0.13867c0.93656 0 1.7695 0.19914 2.5039 0.5957 0.7411 0.38889 1.3237 0.95982 1.75 1.7168 0.43247 0.74767 0.65039 1.6596 0.65039 2.7383v1.8555c0 1.0786-0.21776 1.9928-0.65039 2.748-0.42626 0.74962-1.0085 1.3204-1.75 1.7168-0.73438 0.39656-1.5673 0.5957-2.5039 0.5957s-1.7736-0.199-2.5156-0.5957c-0.74157-0.39648-1.328-0.96697-1.7617-1.7168-0.42533-0.75533-0.63867-1.6693-0.63867-2.748v-1.8555c0-1.0788 0.2135-1.9906 0.63867-2.7383 0.43372-0.75718 1.0186-1.3279 1.7598-1.7168h2e-3c0.74193-0.3967 1.579-0.5957 2.5156-0.5957zm0 1.4258c-0.65951 0-1.2401 0.15981-1.7363 0.48047h-2e-3c-0.4878 0.32012-0.86954 0.76711-1.1426 1.3359v2e-3c-0.26588 0.56974-0.39648 1.2354-0.39648 1.9961v1.4746c0 1.1593 0.29481 2.0923 0.88867 2.7852 0.59377 0.69273 1.3964 1.041 2.3887 1.041 0.66657 0 1.2472-0.15541 1.7363-0.46875 0.48829-0.31281 0.86718-0.75696 1.1328-1.3262 0.26581-0.57719 0.39648-1.2558 0.39648-2.0312v-1.4746c0-0.76068-0.13061-1.4264-0.39648-1.9961-0.26558-0.56911-0.64488-1.0177-1.1328-1.3379-0.4891-0.32105-1.0694-0.48052-1.7363-0.48052zm0 0.13867c0.64472 0 1.1954 0.15402 1.6602 0.45898 0.46592 0.30576 0.82597 0.7306 1.082 1.2793 0.25577 0.54807 0.38477 1.1929 0.38477 1.9375v1.4746c0 0.75969-0.12893 1.4171-0.38477 1.9727-0.25601 0.54859-0.61451 0.96932-1.0801 1.2676-0.46475 0.29773-1.0171 0.44727-1.6621 0.44727-0.96012 0-1.7145-0.3306-2.2832-0.99414-0.56865-0.66343-0.85547-1.5575-0.85547-2.6934v-1.4746c0-0.74463 0.129-1.3894 0.38477-1.9375 0.26351-0.54898 0.62573-0.97344 1.0918-1.2793 0.47251-0.30531 1.025-0.45898 1.6621-0.45898z" color="#000000" style="-inkscape-stroke:none"/>
    <path d="m84.235 35.629v-6.4945q0-0.97249 0.29063-1.6096 0.30181-0.63715 0.89425-0.95014 0.59244-0.32416 1.4532-0.32416 0.2571 0 0.4583-0.03353 0.2012-0.03354 0.34652-0.11178 0.19003-0.1006 0.27945-0.26827 0.1006-0.16767 0.1006-0.41359 0-0.44712-0.38006-0.65951-0.29063-0.17885-0.79364-0.17885-0.52537 0-1.006 0.16767t-0.88307 0.51419q-0.40241 0.33534-0.7154 0.86071h-0.04471v-0.48066q0-0.4583-0.23474-0.7154-0.22356-0.26827-0.62597-0.26827-0.41359 0-0.65951 0.26827-0.23474 0.2571-0.23474 0.7154v9.982q0 0.4583 0.23474 0.72658 0.23474 0.2571 0.64833 0.2571 0.41359 0 0.63715-0.2571 0.23474-0.26827 0.23474-0.72658z" color="#000000" style="-inkscape-stroke:none"/>
    <path d="m86.885 24.516c-0.35764 0-0.70142 0.0575-1.0293 0.17188-0.32796 0.11441-0.63041 0.28997-0.9043 0.52539-0.24345 0.20287-0.4525 0.47526-0.64648 0.77734v-0.34375c0-0.31642-0.08266-0.57332-0.25195-0.75976-0.16217-0.1946-0.39402-0.29297-0.67773-0.29297-0.29075 0-0.53388 0.09786-0.71094 0.29102-0.17036 0.18658-0.25391 0.44432-0.25391 0.76172v9.9824c0 0.3174 0.08255 0.57788 0.25195 0.77148v2e-3h2e-3c0.1702 0.18641 0.40909 0.2793 0.69922 0.2793s0.52649-0.09384 0.68945-0.28125c0.16941-0.19361 0.25195-0.45408 0.25195-0.77148v-6.4941c0-0.64064 0.09544-1.1677 0.2832-1.5801v-2e-3c0.19554-0.41214 0.48362-0.71441 0.86523-0.91602v-2e-3c0.38252-0.20931 0.85484-0.31445 1.4199-0.31445 0.17442 0 0.32988-0.01201 0.46875-0.03516 0.1401-0.02336 0.26412-0.0626 0.36914-0.11914 0.13681-0.07243 0.24012-0.17215 0.30664-0.29688 0.07353-0.12405 0.10938-0.27331 0.10938-0.44531 0-0.31713-0.14558-0.56694-0.41602-0.71875-1.06e-4 -6.5e-5 1.08e-4 -0.0019 0-2e-3 -0.20863-0.1273-0.4843-0.1875-0.82617-0.1875zm0 0.13867c0.3271 0 0.57735 0.05812 0.75586 0.16797l2e-3 2e-3h2e-3c0.23524 0.13146 0.34375 0.32122 0.34375 0.59961 0 0.15447-0.03049 0.27803-0.08984 0.37695l-2e-3 2e-3v2e-3c-0.05271 0.09884-0.1354 0.17657-0.25195 0.23828-0.08874 0.04778-0.19605 0.0841-0.32422 0.10547-0.1294 0.02156-0.27889 0.0332-0.44726 0.0332-0.58253 0-1.0789 0.10912-1.4863 0.33203-0.40787 0.21548-0.71698 0.54378-0.92383 0.98047v2e-3c-0.19929 0.43691-0.29688 0.98342-0.29688 1.6387v6.4941c0 0.29367-0.07517 0.5156-0.21875 0.67969v2e-3c-0.13512 0.15538-0.32266 0.23242-0.58398 0.23242-0.26058 0-0.45304-0.07887-0.5957-0.23438-0.14358-0.16409-0.21875-0.38602-0.21875-0.67969v-9.9824c0-0.29367 0.07417-0.51176 0.2168-0.66797 0.15083-0.16454 0.34868-0.24609 0.60938-0.24609 0.25283 0 0.43635 0.08105 0.57227 0.24414l2e-3 2e-3c0.14263 0.15621 0.2168 0.3743 0.2168 0.66797v0.55078h0.15234l0.02148-0.03516c0.20528-0.34458 0.43785-0.62399 0.69922-0.8418l2e-3 -2e-3c0.2621-0.2257 0.5473-0.39114 0.85938-0.5 0.313-0.10919 0.64152-0.16406 0.98438-0.16406z" color="#000000" style="-inkscape-stroke:none"/>
    <path d="m87.577 31.605q0 2.3586 1.3414 3.7223t3.6664 1.3637q1.1961 0 2.2021-0.34652 1.006-0.3577 1.5538-0.97249 0.22356-0.2571 0.3577-0.53655 0.13414-0.29063 0.13414-0.52537 0-0.33534-0.2012-0.5589-0.2012-0.22356-0.50301-0.22356-0.22356 0-0.40241 0.11178-0.16767 0.11178-0.62597 0.54773-0.24592 0.23474-0.51419 0.41359t-0.57008 0.30181q-0.30181 0.11178-0.63715 0.16767-0.33534 0.05589-0.7154 0.05589-1.5426 0-2.4256-0.90542-0.88307-0.9166-0.88307-2.4927v-0.63715h6.7851q0.59244 0 0.78246-0.32416 0.2012-0.33534 0.2012-1.2855 0-1.442-0.60362-2.5374-0.60362-1.1066-1.6655-1.7326-1.0507-0.62597-2.4368-0.62597-1.4196 0-2.5151 0.64833t-1.7102 1.7997q-0.61479 1.1513-0.61479 2.6604zm1.7773-2.0232v-0.03354q0-1.5314 0.84953-2.4704 0.84953-0.95014 2.2244-0.95014 1.3414 0 2.135 0.92778 0.79364 0.92778 0.79364 2.4927v0.03354z" color="#000000" style="-inkscape-stroke:none"/>
    <path d="m92.418 24.516c-0.95699 0-1.8092 0.21928-2.5508 0.6582-0.74091 0.4385-1.3209 1.0483-1.7363 1.8262-0.4158 0.77869-0.62305 1.6779-0.62305 2.6934v1.9121c0 1.5856 0.45304 2.8461 1.3613 3.7695 0.90832 0.92346 2.1512 1.3848 3.7148 1.3848 0.80408 0 1.5479-0.11584 2.2266-0.34961 0.67878-0.24134 1.2073-0.57154 1.582-0.99219 0.15271-0.17561 0.2768-0.36035 0.36914-0.55274v-2e-3c0.09241-0.20022 0.14062-0.383 0.14062-0.55273 0-0.23746-0.07305-0.44358-0.21875-0.60547-0.1457-0.16188-0.33632-0.24805-0.55469-0.24805-0.16062 0-0.30918 0.04163-0.43945 0.12305h-2e-3v2e-3c-0.12216 0.08144-0.32831 0.26318-0.63477 0.55469-0.16119 0.15386-0.33053 0.28936-0.50586 0.40625-0.17496 0.11664-0.35968 0.21468-0.55664 0.29492-0.19637 0.0726-0.4042 0.12759-0.62305 0.16406-0.21936 0.03656-0.45316 0.05469-0.70312 0.05469-1.0148 0-1.8024-0.29563-2.377-0.88477-0.5749-0.59673-0.86328-1.4056-0.86328-2.4434v-0.56836h6.7148c0.40763 0 0.70113-0.11608 0.84375-0.35938 0.14857-0.24857 0.21094-0.6829 0.21094-1.3203 0-0.97101-0.20465-1.8287-0.61328-2.5703-0.40798-0.74796-0.97299-1.3363-1.6914-1.7598-0.71204-0.42419-1.5362-0.63477-2.4707-0.63477zm0 0.13867c0.91359 0 1.7114 0.2048 2.4004 0.61523v2e-3c0.69747 0.41114 1.2438 0.97753 1.6406 1.7051 0.39619 0.71901 0.59375 1.5523 0.59375 2.5039 0 0.62852-0.07022 1.0513-0.18945 1.25h-2e-3c-0.11075 0.18892-0.34037 0.29102-0.72266 0.29102h-6.8535v0.70703c0 1.0637 0.29982 1.9137 0.90234 2.5391v2e-3c0.60284 0.6181 1.4346 0.92578 2.4766 0.92578 0.25678 0 0.4988-0.01868 0.72656-0.05664 0.22764-0.03794 0.44291-0.09575 0.64844-0.17188h2e-3c0.20544-0.0837 0.40124-0.18677 0.58398-0.30859 0.18237-0.12158 0.35674-0.26275 0.52344-0.42188 0.30462-0.28976 0.51383-0.47146 0.61524-0.53906 0.1082-0.06762 0.22778-0.09961 0.36523-0.09961 0.18405 0 0.3286 0.06302 0.45117 0.19922 0.12258 0.1362 0.18359 0.30401 0.18359 0.51367 0 0.14325-0.04246 0.3088-0.12891 0.49609-0.08638 0.17938-0.20096 0.35307-0.3457 0.51953-0.35554 0.39908-0.8628 0.71754-1.5254 0.95312-0.66267 0.22825-1.389 0.3418-2.1797 0.3418-1.5364 0-2.7351-0.44891-3.6152-1.3438-0.8802-0.89487-1.3223-2.1127-1.3223-3.6719v-1.9121c0-0.99659 0.2035-1.8705 0.60742-2.627 0.40434-0.75721 0.96391-1.3475 1.6836-1.7734 0.71898-0.42552 1.5446-0.63867 2.4805-0.63867zm0.0098 1.4043c-0.93261 0-1.6966 0.32534-2.2754 0.97266-0.57897 0.63991-0.86719 1.4818-0.86719 2.5156v0.10352h6.1406v-0.10352c0-1.055-0.2689-1.9039-0.81055-2.5371-0.54167-0.63322-1.2772-0.95117-2.1875-0.95117zm0 0.13867c0.87822 0 1.5655 0.29852 2.082 0.90234 0.50909 0.59514 0.75822 1.4017 0.76562 2.4121h-5.8398c0.0079-0.98766 0.27458-1.7835 0.82031-2.3867v-2e-3c0.55394-0.61954 1.2713-0.92578 2.1719-0.92578z" color="#000000" style="-inkscape-stroke:none"/>
    <path d="m99.962 35.629v-11.335h0.07823l7.2434 11.335q0.35769 0.5589 0.62598 0.77129 0.26827 0.21238 0.67068 0.21238 1.006 0 1.006-1.1961v-13.302q0-0.4583-0.23474-0.7154-0.22357-0.26827-0.63716-0.26827t-0.63715 0.26827q-0.22356 0.2571-0.22356 0.7154v11.335h-0.0894l-7.1763-11.212q-0.31299-0.50301-0.60361-0.80482-0.29063-0.30181-0.7154-0.30181-1.0396 0-1.0396 1.1961v13.302q0 0.44712 0.22356 0.7154 0.22356 0.26827 0.63715 0.26827 0.41359 0 0.63715-0.26827 0.23474-0.26827 0.23474-0.7154z" color="#000000" style="-inkscape-stroke:none"/>
    <path d="m99.27 21.061c-0.35985 0-0.64372 0.10756-0.83203 0.32422-0.18831 0.21666-0.27734 0.53265-0.27734 0.94141v13.303c0 0.30966 0.07904 0.56633 0.24024 0.75977 0.16254 0.19504 0.3987 0.29297 0.68945 0.29297 0.28976 0 0.52696-0.0973 0.68945-0.29102v-2e-3c0.1683-0.1931 0.25195-0.45024 0.25195-0.75977v-11.221l7.1934 11.258c0.24056 0.37588 0.45225 0.63839 0.64258 0.78906 0.1921 0.15209 0.43239 0.22656 0.71289 0.22656 0.34911 0 0.62623-0.10741 0.80859-0.32422 0.18237-0.21681 0.26758-0.53298 0.26758-0.94141v-13.301c0-0.31667-0.0843-0.57524-0.25391-0.76172-0.16245-0.1928-0.39843-0.29297-0.6875-0.29297-0.28976 0-0.52696 0.09925-0.68945 0.29297-3.8e-4 4.35e-4 3.8e-4 0.0015 0 2e-3 -0.16169 0.18672-0.24023 0.44367-0.24023 0.75976v11.236l-7.1387-11.15v-2e-3c-0.21012-0.33752-0.41314-0.60865-0.61132-0.81445-0.20549-0.21339-0.46599-0.32422-0.76563-0.32422zm0 0.14062c0.26672 0 0.484 0.09028 0.66602 0.2793 0.18901 0.19629 0.38689 0.46052 0.59375 0.79297v2e-3l7.1973 11.242h0.19727v-11.402c0-0.29423 0.0714-0.51396 0.20703-0.66992v-2e-3c0.13555-0.16266 0.32328-0.24219 0.58398-0.24219s0.44844 0.07953 0.58399 0.24219v2e-3h2e-3c0.14263 0.15621 0.2168 0.37626 0.2168 0.66992v13.301c0 0.38894-0.0833 0.67164-0.23633 0.85352-0.15298 0.18188-0.3796 0.27344-0.70117 0.27344-0.25605 0-0.46137-0.06617-0.62695-0.19727-0.16738-0.1325-0.37496-0.38458-0.61133-0.75391l-7.2637-11.367h-0.18555v11.404c0 0.28592-0.0729 0.50547-0.2168 0.66992h-2e-3c-0.13555 0.16266-0.32329 0.24414-0.58398 0.24414-0.2607 0-0.44844-0.08148-0.58398-0.24414-0.13688-0.16426-0.20703-0.38342-0.20703-0.66992v-13.303c0-0.38862 0.08593-0.66954 0.24414-0.85156 0.15821-0.18203 0.39337-0.27344 0.72656-0.27344z" color="#000000" style="-inkscape-stroke:none"/>
    <path d="m115.73 24.585q-1.4196 0-2.5486 0.60362-1.129 0.59244-1.7885 1.7438-0.64833 1.1402-0.64833 2.7722v1.8556q0 1.632 0.64833 2.7833 0.6595 1.1402 1.7885 1.7438 1.129 0.60362 2.5486 0.60362 1.4196 0 2.5374-0.60362 1.129-0.60362 1.7773-1.7438 0.6595-1.1513 0.6595-2.7833v-1.8556q0-1.632-0.6595-2.7722-0.64833-1.1513-1.7773-1.7438-1.1178-0.60362-2.5374-0.60362zm0 1.5649q0.98367 0 1.6991 0.46948 0.71539 0.46948 1.1066 1.3078 0.39123 0.83836 0.39123 1.9673v1.4755q0 1.1513-0.39123 2.0009-0.39124 0.83836-1.1066 1.2967-0.7154 0.4583-1.6991 0.4583-1.4643 0-2.3362-1.0172-0.87189-1.0172-0.87189-2.7386v-1.4755q0-1.129 0.39123-1.9673 0.40241-0.83836 1.1178-1.3078 0.72658-0.46948 1.6991-0.46948z" color="#000000" style="-inkscape-stroke:none"/>
    <path d="m115.73 24.516c-0.95627 0-1.8187 0.20321-2.582 0.61133-0.76353 0.40097-1.3691 0.99397-1.8144 1.7715-0.43926 0.7725-0.6582 1.7094-0.6582 2.8066v1.8555c0 1.0972 0.21909 2.0366 0.6582 2.8164v2e-3c0.44561 0.77039 1.0507 1.3612 1.8144 1.7695 0.76334 0.40812 1.6258 0.61133 2.582 0.61133 0.95625 0 1.8143-0.20307 2.5703-0.61133 0.76382-0.40838 1.3665-1.0009 1.8047-1.7715 0.4467-0.77985 0.66992-1.719 0.66992-2.8164v-1.8555c0-1.0966-0.22365-2.0344-0.66992-2.8066-0.43819-0.77815-1.0405-1.3705-1.8047-1.7715-0.75603-0.40826-1.6141-0.61133-2.5703-0.61133zm0 0.13867c0.93655 0 1.7695 0.19914 2.5039 0.5957h2e-3c0.74111 0.38889 1.3218 0.95982 1.748 1.7168 0.43247 0.74767 0.65039 1.6596 0.65039 2.7383v1.8555c0 1.0786-0.21776 1.9928-0.65039 2.748-0.42625 0.74962-1.0066 1.3204-1.748 1.7168h-2e-3c-0.73438 0.39656-1.5674 0.5957-2.5039 0.5957-0.93657 0-1.7737-0.199-2.5156-0.5957-0.74115-0.39626-1.3261-0.9676-1.7598-1.7168-0.42533-0.75533-0.64062-1.6693-0.64062-2.748v-1.8555c0-1.0788 0.21349-1.9906 0.63867-2.7383 0.43372-0.75718 1.0205-1.3279 1.7617-1.7168 0.74197-0.3967 1.5791-0.5957 2.5156-0.5957zm0 1.4258c-0.65951 0-1.2401 0.15981-1.7363 0.48047-0.4878 0.32012-0.86955 0.76711-1.1426 1.3359v2e-3c-0.26588 0.56974-0.39844 1.2354-0.39844 1.9961v1.4746c0 1.1593 0.29481 2.0923 0.88867 2.7852 0.59377 0.69273 1.3964 1.041 2.3887 1.041 0.66657 0 1.2472-0.15541 1.7363-0.46875 0.48829-0.31281 0.86718-0.75696 1.1328-1.3262 0.26581-0.57719 0.39843-1.2558 0.39843-2.0312v-1.4746c0-0.76068-0.13256-1.4264-0.39843-1.9961-0.26559-0.56911-0.64293-1.0177-1.1309-1.3379-0.48915-0.321-1.0714-0.48047-1.7383-0.48047zm0 0.13867c0.64472 0 1.1974 0.15402 1.6621 0.45898 0.46592 0.30576 0.82402 0.7306 1.0801 1.2793 0.25577 0.54807 0.38477 1.1929 0.38477 1.9375v1.4746c0 0.75969-0.12894 1.4171-0.38477 1.9727-0.25601 0.54859-0.61451 0.96932-1.0801 1.2676-0.46475 0.29773-1.0171 0.44727-1.6621 0.44727-0.96013 0-1.7145-0.3306-2.2832-0.99414-0.56865-0.66343-0.85547-1.5575-0.85547-2.6934v-1.4746c0-0.74463 0.129-1.3894 0.38477-1.9375 0.26351-0.54898 0.62768-0.97344 1.0938-1.2793 0.47251-0.30531 1.023-0.45898 1.6602-0.45898z" color="#000000" style="-inkscape-stroke:none"/>
    <path d="m123.2 34.891q0.3018 1.0843 0.5589 1.4084 0.26827 0.31299 0.816 0.31299 0.51419 0 0.76011-0.31299 0.24592-0.32416 0.5589-1.4084l2.1909-7.5676h0.0447l2.2468 7.5676q0.32417 1.0843 0.60362 1.4084 0.27945 0.31299 0.78246 0.31299 0.49184 0 0.73776-0.31299 0.25709-0.32416 0.53654-1.4084l2.3362-8.786q0.0559-0.21238 0.0782-0.32416 0.0224-0.12296 0.0224-0.23474 0-0.36888-0.23474-0.59244-0.22356-0.23474-0.59243-0.23474-0.31299 0-0.54773 0.2571-0.22356 0.24592-0.34652 0.72658l-2.0009 8.5289h-0.0782l-2.2468-7.7911q-0.31298-1.0955-0.5589-1.4084-0.23474-0.31299-0.76011-0.31299t-0.77129 0.31299q-0.24591 0.31299-0.54772 1.4084l-2.1909 7.7911h-0.0782l-1.9338-8.473q-0.24592-1.0396-0.96131-1.0396-0.41359 0-0.68187 0.26827-0.25709 0.2571-0.25709 0.67068 0 0.12296 0.0224 0.27945 0.0224 0.14532 0.0671 0.31299z" color="#000000" style="-inkscape-stroke:none"/>
    <path d="m121.62 24.648c-0.29075 0-0.53899 0.09759-0.73047 0.28906-0.18457 0.18457-0.27734 0.43058-0.27734 0.7207 0 0.08619 8e-3 0.18221 0.0234 0.28906 0.0154 0.09978 0.038 0.2065 0.0683 0.32031v2e-3l2.4258 8.6406c0.20208 0.72604 0.38565 1.1963 0.57226 1.4316v2e-3c0.19406 0.2264 0.49075 0.33789 0.86914 0.33789 0.3569 0 0.63597-0.11268 0.81446-0.33984h2e-3c0.17791-0.23452 0.36082-0.70591 0.57031-1.4316l2.1465-7.418 2.2012 7.418c0.21714 0.72628 0.41649 1.2005 0.61914 1.4355 0.20009 0.22411 0.48423 0.33594 0.83398 0.33594 0.34264 0 0.61512-0.11349 0.79297-0.33984 0.18722-0.23606 0.36166-0.70738 0.54883-1.4336l2.3359-8.7852c0.0375-0.14229 0.0647-0.25096 0.0801-0.32812v-2e-3c0.0156-0.08563 0.0234-0.16693 0.0234-0.24609 0-0.25902-0.0857-0.47872-0.2539-0.64062-0.16221-0.17032-0.38193-0.25781-0.64258-0.25781-0.22769 0-0.43275 0.09849-0.59961 0.28125-0.15994 0.17593-0.27951 0.42838-0.36328 0.75586l-1.9746 8.4199-2.2168-7.6836c-0.20925-0.73238-0.39108-1.203-0.57031-1.4316-0.17143-0.22857-0.45041-0.3418-0.81446-0.3418-0.36404 1e-6 -0.64737 0.11228-0.82617 0.33984-0.17974 0.22877-0.3585 0.70027-0.56054 1.4336l-2.1602 7.6836-1.9082-8.3633c-0.0837-0.35387-0.20702-0.62467-0.37891-0.81055-0.17189-0.18588-0.39509-0.2832-0.65039-0.2832zm0 0.14062c0.22163 0 0.39833 0.07569 0.54688 0.23633 0.14854 0.16064 0.26742 0.41082 0.34765 0.75l1.9453 8.5254h0.1875l2.2051-7.8418c0.20037-0.72727 0.38702-1.1962 0.53516-1.3848 0.14909-0.18975 0.38035-0.28516 0.71679-0.28516 0.33645 1e-6 0.56157 0.09641 0.70313 0.28516h2e-3c0.14846 0.18895 0.33907 0.65741 0.54688 1.3848l2.2617 7.8418h0.18554l2.0137-8.582c0.0801-0.31179 0.19239-0.54386 0.33007-0.69531 0.14613-0.16004 0.30647-0.23438 0.4961-0.23438 0.23117 0 0.40514 0.07022 0.54101 0.21289h2e-3l2e-3 2e-3c0.14267 0.13588 0.21289 0.31179 0.21289 0.54297 0 0.06988-7e-3 0.14238-0.0215 0.2207-0.0143 0.07187-0.0411 0.17943-0.0781 0.32031l-2.3359 8.7852c-0.18543 0.71948-0.36787 1.1867-0.52343 1.3828-0.15004 0.19096-0.37045 0.28711-0.6836 0.28711-0.32018 0-0.55611-0.09675-0.72851-0.28906-0.16996-0.19715-0.37476-0.66339-0.58985-1.3828l-2.2617-7.6172h-0.14843l-2.207 7.6172c-0.20757 0.71908-0.39699 1.1867-0.54688 1.3848-0.14941 0.19016-0.37639 0.28711-0.70508 0.28711-0.35083 0-0.59807-0.09736-0.76172-0.28711l-2e-3 -2e-3c-0.15603-0.19751-0.343-0.66243-0.54297-1.3809h-2e-3l-2.4238-8.6406c-0.0291-0.10908-0.0519-0.21119-0.0664-0.30469v-2e-3c-0.0144-0.1009-0.0215-0.19039-0.0215-0.26758 0-0.26132 0.0781-0.46287 0.23633-0.62109 0.16622-0.16622 0.37211-0.24805 0.63281-0.24805z" color="#000000" style="-inkscape-stroke:none"/>
   </g>
  </g>
 </g>
</svg>
