<?xml version="1.0" encoding="UTF-8"?>
<!-- Created with Inkscape (http://www.inkscape.org/) -->
<svg width="28.67mm" height="23.697mm" version="1.1" viewBox="0 0 28.67 23.697" xmlns="http://www.w3.org/2000/svg">
 <g transform="translate(-65.712 -54.329)">
  <g transform="matrix(.74535 0 0 .74535 -32.334 -79.585)">
   <g transform="translate(1.3458 34.511)">
    <path d="m147.06 147.58a1.4498 1.4498 0 0 0-1.0938 0.18554 1.4498 1.4498 0 0 0-0.45703 1.998l1.1191 1.7852a1.4498 1.4498 0 0 0 2 0.45703 1.4498 1.4498 0 0 0 0.45703-1.998l-1.1211-1.7852a1.4498 1.4498 0 0 0-0.9043-0.64258z" color="#000000" stroke-linecap="round" style="-inkscape-stroke:none"/>
    <path d="m159.65 155.96a1.5494 1.5494 0 0 0-1.0527 0.54883l-6.3496 7.584-2.4043-3.125a1.5494 1.5494 0 0 0-2.1738-0.28321 1.5494 1.5494 0 0 0-0.2832 2.1738l4.7617 6.1836 8.8262-10.545a1.5494 1.5494 0 0 0-0.19336-2.1816 1.5494 1.5494 0 0 0-1.1309-0.35547z" color="#000000" stroke-linecap="round" style="-inkscape-stroke:none"/>
    <path d="m154.04 153.35" stroke="#f60" stroke-width="1.7962"/>
    <g transform="rotate(-1.4227 153.72 146.68)">
     <path d="m150.84 145.09a1.5228 1.5228 0 0 0-1.5573 1.4888 1.5228 1.5228 0 0 0 1.4869 1.5572l5.8403 0.13169a1.5228 1.5228 0 0 0 1.5572-1.4869 1.5228 1.5228 0 0 0-1.4888-1.5573zm-0.0357 1.5849 5.8405 9e-3m-4.4655-0.51116-0.0732 3.2823 3.3002 0.0577 0.0723-3.3232zm1.8423 3.2247-0.40129-3.204m0.0529-0.26369c-0.15112 9e-3 -0.32627 0.17505-0.50352 0.41979s-0.35661 0.56794-0.51614 0.89051-0.29924 0.64451-0.39719 0.88672c-0.098 0.24222-0.15415 0.40472-0.14668 0.40842-1.2059 0.10179-2.4311 0.3705-3.49 0.69856l-0.75783-1.256c-0.29319-0.48594-1.229-0.89836-2.0312-0.31639-0.68643 0.49798-0.68724 1.2725-0.48324 1.7067 0.0303 0.0645 0.59907 1.0432 0.59907 1.0432-1.9933 1.1136-3.4623 2.4934-4.5964 4.0043-0.55431 0.74425-1.0361 1.5426-1.4348 2.3857-0.39875 0.84319-0.71446 1.7313-0.9366 2.655-0.22215 0.92379-0.35072 1.8833-0.37521 2.8694-0.19592 7.8886 6.3459 14.41 14.478 14.612 8.1317 0.20196 14.989-5.9867 15.185-13.875-0.0623-8.0739-5.9288-13.354-12.842-14.479l0.0282-0.34701s-1.3297-2.2949-1.7787-2.3069zm0.0334 5.8205c6.4283 0.15965 11.409 5.2078 11.26 11.23s-5.3752 10.819-11.803 10.659c-6.4282-0.15965-11.411-5.2098-11.262-11.232 0.14958-6.0225 5.3771-10.817 11.805-10.657zm-12.647 15.14-10.019-9e-3a1.3812 1.3812 0 0 0-1.3823 1.3802 1.3812 1.3812 0 0 0 1.3802 1.3824l10.018 9e-3a1.3812 1.3812 0 0 0 1.3824-1.3802 1.3812 1.3812 0 0 0-1.3802-1.3824zm-1.3745-5.0313-5.1794-9e-3a1.3812 1.3812 0 0 0-1.3843 1.3784 1.3812 1.3812 0 0 0 1.3784 1.3843l5.1814 9e-3a1.3812 1.3812 0 0 0 1.3824-1.3804 1.3812 1.3812 0 0 0-1.3785-1.3823zm-7.3522-5.2999a1.3812 1.3812 0 0 0-1.4147 1.3462 1.3812 1.3812 0 0 0 1.3462 1.4147l8.0092 0.19892a1.3812 1.3812 0 0 0 1.4147-1.3462 1.3812 1.3812 0 0 0-1.3462-1.4147z" color="#000000" stroke-linecap="round" style="-inkscape-stroke:none"/>
    </g>
   </g>
  </g>
 </g>
</svg>
